<?xml version="1.0" encoding="utf-8"?>
<!-- Generator: Adobe Illustrator 16.0.0, SVG Export Plug-In . SVG Version: 6.00 Build 0)  -->
<!DOCTYPE svg PUBLIC "-//W3C//DTD SVG 1.0//EN" "http://www.w3.org/TR/2001/REC-SVG-20010904/DTD/svg10.dtd">
<svg version="1.0" id="Layer_1" xmlns="http://www.w3.org/2000/svg" xmlns:xlink="http://www.w3.org/1999/xlink" x="0px" y="0px"
	 width="100px" height="100px" viewBox="0 0 100 100" enable-background="new 0 0 100 100" xml:space="preserve">
<path fill="#8BC34A" d="M56.667,10L90,43.333V10H56.667z M83.333,27.24L72.762,16.667h10.571V27.24z"/>
<path fill="#263238" d="M63.333,60V36.667H40V13.333H10v30h23.333V60H10v30h30V66.667h16.667V90h30V60H63.333z M33.334,83.333
	L33.334,83.333H16.667V66.667h16.667V83.333z M33.334,36.667L33.334,36.667H16.667V20h16.667V36.667z M56.667,60H40V43.333h16.667
	V60z M80,83.333H63.333V66.667H80V83.333z"/>
</svg>
